<!-- Generated by IcoMoon.io -->
<svg version="1.1" xmlns="http://www.w3.org/2000/svg" width="768" height="768" viewBox="0 0 768 768">
<path fill="#fff" d="M672 448c-19.2 0-32 12.8-32 32v128c0 19.2-12.8 32-32 32h-448c-19.2 0-32-12.8-32-32v-128c0-19.2-12.8-32-32-32s-32 12.8-32 32v128c0 54.4 41.6 96 96 96h448c54.4 0 96-41.6 96-96v-128c0-19.2-12.8-32-32-32z"></path>
<path fill="#fff" d="M361.6 502.4c3.2 3.2 6.4 6.4 9.6 6.4 3.2 3.2 9.6 3.2 12.8 3.2s9.6 0 12.8-3.2c3.2-3.2 6.4-3.2 9.6-6.4l160-160c12.8-12.8 12.8-32 0-44.8s-32-12.8-44.8 0l-105.6 105.6v-307.2c0-19.2-12.8-32-32-32s-32 12.8-32 32v307.2l-105.6-105.6c-12.8-12.8-32-12.8-44.8 0s-12.8 32 0 44.8l160 160z"></path>
</svg>
